<svg width="391" height="605" viewBox="0 0 391 605" fill="none" xmlns="http://www.w3.org/2000/svg">
<g clip-path="url(#clip0_179_7437)">
<path d="M57.7073 586.376C58.1772 585.846 58.1565 585.831 57.1505 585.997C55.7615 586.228 55.8185 585.814 57.3514 584.531C60.0758 582.25 62.2035 578.645 62.9561 575.034C63.4139 572.838 63.3322 568.543 62.8231 568.023C61.7912 566.969 54.8079 566.37 52.4901 567.138C50.1153 567.924 47.5275 569.431 46.0556 570.888C45.2201 571.714 44.5371 572.225 44.5371 572.022C44.5371 571.82 44.6753 571.567 44.844 571.46C45.1798 571.248 45.7907 569.787 44.5953 569.036C45.0842 568.434 47.9139 566.546 49.3086 565.892C52.8829 564.214 56.4992 563.955 61.672 565.005L62.4672 565.167V562.192C62.4672 557.246 64.2259 552.705 67.4811 549.241C68.1301 548.551 68.7768 547.986 68.9185 547.986C69.0601 547.986 69.9153 547.52 70.8188 546.95C74.3441 544.728 78.4545 543.837 82.4221 544.437C86.7006 545.083 86.2895 545.345 86.3643 541.93C86.4662 537.289 87.5759 533.889 90.067 530.582C91.2222 529.048 94.5431 526.125 95.131 526.125C95.2496 526.125 95.575 526.383 95.8537 526.697C96.3731 527.284 96.2574 527.898 95.6274 527.898C95.4333 527.898 94.2851 528.889 93.0758 530.101C90.2115 532.97 88.8929 535.611 88.1863 539.892C87.8155 542.138 88.0089 544.961 88.5848 545.708C89.6484 547.087 96.0241 547.562 99.4573 546.517C101.837 545.793 104.412 544.238 106.209 542.44C107.47 541.18 107.622 541.105 108.047 541.538C108.762 542.269 108.315 543.106 106.333 544.744C104.187 546.519 101.786 547.734 99.0514 548.43C97.4327 548.841 96.4186 548.904 93.9903 548.74C92.3203 548.627 90.4983 548.511 89.9415 548.482L88.9291 548.429L89.0299 549.997C89.2384 553.253 87.8252 558.462 85.9612 561.311C81.6078 567.965 76.1039 570.547 68.7106 569.403C67.1339 569.16 65.7674 568.96 65.6736 568.96C65.5803 568.96 65.4789 570.323 65.4478 571.988C65.4093 574.028 65.2066 575.616 64.8253 576.856C63.6771 580.59 60.5197 585.26 58.4288 586.316C57.3192 586.877 57.2593 586.882 57.7073 586.376ZM75.957 566.564C77.0477 566.221 78.3301 565.736 78.8075 565.485C80.1699 564.77 83.5093 561.857 84.2901 560.702C86.1271 557.984 87.0496 554.633 87.0496 550.676C87.0496 548.233 86.9661 547.705 86.5129 547.286C85.6278 546.468 82.0178 545.836 79.3856 546.038C75.209 546.359 72.6695 547.452 69.8024 550.163C66.1101 553.655 64.253 558.592 64.6653 563.821L64.8536 566.214L66.6249 566.657C69.4016 567.351 73.5863 567.31 75.957 566.564Z" fill="#6155F5" stroke="#6155F5"/>
<path d="M59.7923 586.481C59.5142 586.407 59.2861 586.29 59.2861 586.221C59.2861 586.153 59.9455 585.265 60.7517 584.249C64.0478 580.094 65.3602 576.667 65.4477 571.988C65.4788 570.323 65.5801 568.96 65.6734 568.96C65.7673 568.96 67.1338 569.16 68.7104 569.403C73.3241 570.117 77.3896 569.307 80.7364 567.006C81.5541 566.444 82.3528 565.902 82.5112 565.802C82.935 565.534 82.5572 570.199 81.9682 572.505C80.6869 577.525 76.8011 582.285 71.926 584.808C69.6024 586.011 66.4272 586.679 63.1904 586.646C61.5999 586.63 60.0704 586.556 59.7923 586.481Z" fill="#F7C58F" stroke="#F7C58F"/>
<path d="M44.2471 567.059C44.2471 559.497 48.4064 552.667 55.0926 549.249C58.1152 547.704 62.5337 546.915 65.4693 547.397C68.8553 547.951 68.7684 547.869 67.452 549.271C65.5517 551.294 64.2376 553.591 63.3278 556.482C62.6068 558.773 62.4669 559.703 62.4669 562.192V565.167L61.6716 565.005C58.5465 564.37 56.9554 564.219 55.274 564.395C51.569 564.782 49.037 565.719 46.1865 567.76C45.2652 568.42 44.4521 568.96 44.3795 568.96C44.3064 568.96 44.2471 568.104 44.2471 567.059Z" fill="#F7C58F" stroke="#F7C58F"/>
<path d="M36.3635 603.897C35.7439 603.197 35.7295 602.82 36.3048 602.332C37.0171 601.729 38.6531 598.495 39.1466 596.717C40.2079 592.891 40.1042 588.795 38.926 588.006C38.5684 587.767 37.1219 587.352 35.7122 587.085C33.5321 586.672 32.8054 586.653 30.8601 586.957C28.5521 587.318 28.1485 587.441 25.6769 588.536C24.5558 589.031 24.2344 589.071 23.8694 588.761C23.6246 588.554 23.4248 588.229 23.4248 588.039C23.4248 587.582 26.0265 586.279 28.1963 585.65C30.2762 585.046 35.5297 584.952 37.1236 585.49C38.8794 586.082 39.0412 585.867 39.0458 582.927C39.0539 577.999 40.7566 573.389 43.7839 570.099C44.0793 569.424 45.5868 569.424 45.3623 570.585C45.0634 571.072 44.7404 571.704 44.6442 571.988C44.5474 572.272 44.3557 572.505 44.2175 572.505C44.0793 572.505 43.6405 573.008 43.242 573.622C41.3653 576.519 40.1439 581.855 40.6541 584.928C40.8937 586.369 41.0256 586.583 41.9337 587.012C43.6342 587.815 47.171 588.205 49.5395 587.851C51.6787 587.531 52.6093 587.259 54.3691 586.44C54.9259 586.18 55.9907 585.963 56.7347 585.957C58.0338 585.947 58.0683 585.968 57.6025 586.494C56.8003 587.399 54.9282 588.368 52.6726 589.045C50.8207 589.601 50.0635 589.664 46.8883 589.533C44.8791 589.451 42.8447 589.341 42.3673 589.289L41.4995 589.195L41.591 590.642C41.8479 594.714 40.053 600.566 37.6436 603.514C36.8829 604.445 36.8559 604.452 36.3635 603.897Z" fill="#6155F5" stroke="#6155F5"/>
<path d="M10.1643 51.6696C7.448 51.1337 5.49588 49.3258 4.49391 46.416C3.85299 44.5538 3.93994 43.3621 4.87108 41.2653C6.1247 38.44 8.80988 36.6309 11.7478 36.6309C14.209 36.6309 17.1101 38.5628 18.4006 41.062C19.1786 42.568 19.121 46.1112 18.2918 47.7365C16.7658 50.7308 13.476 52.3225 10.1643 51.6696ZM14.4785 49.2555C15.0123 48.888 15.8081 48.0573 16.2469 47.4092C17.3301 45.8087 17.4073 42.8534 16.4053 41.3344C15.0308 39.2506 12.7372 38.336 10.4528 38.9599C7.85397 39.67 6.07345 41.8732 6.07345 44.3777C6.07345 48.3545 11.3442 51.4132 14.4785 49.2555Z" fill="#6155F5" stroke="#6155F5"/>
<path d="M5.92795 509.575C3.514 509.207 1.49681 507.424 0.571997 504.84C-0.0568281 503.081 -0.138598 502.161 0.26507 501.381C0.410759 501.098 0.688893 500.431 0.882954 499.896C1.3753 498.542 2.18379 497.565 3.57849 496.64C4.61905 495.949 5.06648 495.848 7.08482 495.847C9.18206 495.846 9.52008 495.929 10.6937 496.739C13.2729 498.518 14.4286 501.703 13.612 504.786C12.7834 507.915 9.29608 510.088 5.92795 509.575ZM9.05652 507.994C10.3792 507.397 10.9919 506.806 11.1088 506.017C11.1227 505.924 11.3438 505.633 11.6 505.372C12.2456 504.712 12.5093 502.689 12.1344 501.266C11.7227 499.705 9.65713 497.575 8.30216 497.315C6.99614 497.065 3.82726 497.893 2.97961 498.707C2.00528 499.641 1.64653 501.121 1.80028 503.569C1.96382 506.165 2.29896 506.648 4.77165 507.851C6.87464 508.875 7.09058 508.882 9.05652 507.994Z" fill="#6155F5" stroke="#6155F5"/>
<path d="M381.153 481.113C378.335 480.343 376.688 478.625 375.952 475.687C375.609 474.32 375.623 473.949 376.07 472.501C377.079 469.232 379.414 467.491 382.758 467.516C385.268 467.535 386.953 468.412 388.296 470.401C390.946 474.324 388.788 480.139 384.341 481.059C383.788 481.174 383.141 481.313 382.902 481.37C382.664 481.427 381.876 481.311 381.153 481.113ZM384.904 479.019C385.354 478.782 385.789 478.658 385.873 478.743C386.243 479.121 387.557 476.746 387.838 475.193C388.108 473.704 388.074 473.362 387.544 472.245C386.717 470.498 385.912 469.854 384.053 469.447C382.057 469.012 380.925 469.234 379.643 470.314C377.124 472.435 377.022 476.057 379.413 478.499C380.269 479.374 380.493 479.451 382.216 479.451C383.291 479.451 384.435 479.267 384.904 479.019Z" fill="#6155F5" stroke="#6155F5"/>
<path d="M4.98631 507.466C3.33708 506.649 2.38924 505.43 2.15372 503.823C1.76214 501.155 2.55854 499.435 4.70184 498.317C6.50597 497.377 8.33486 497.432 9.66219 498.465C11.3039 499.743 11.8544 500.867 11.8556 502.941C11.8567 505.219 10.9935 506.633 9.07079 507.502C7.4112 508.251 6.55664 508.244 4.98631 507.466Z" fill="#E35039" stroke="#E35039"/>
<path d="M9.24328 49.2596C7.46506 48.3438 6.07324 46.2003 6.07324 44.3776C6.07324 40.0398 11.2513 37.2423 14.7818 39.6729C16.454 40.8238 17.0639 42.0616 17.0529 44.2813C17.0449 45.9191 16.9159 46.4207 16.2467 47.4091C14.518 49.9632 11.9342 50.6456 9.24328 49.2596Z" fill="#F7C58F" stroke="#F7C58F"/>
<path d="M4.77218 507.851C2.29949 506.648 1.96435 506.165 1.80081 503.569C1.56241 499.772 2.402 498.405 5.46492 497.603C7.9451 496.954 9.00638 497.201 10.5635 498.792C11.9835 500.243 12.5674 501.893 12.2663 503.605C11.915 505.601 11.7013 505.459 11.7952 503.293C11.9017 500.838 11.4779 499.878 9.66285 498.465C8.7939 497.788 8.30443 497.627 7.22759 497.661C5.6538 497.711 3.77654 498.605 2.92717 499.708C1.72422 501.271 1.78757 504.467 3.05213 506.003C3.85601 506.977 6.0114 508.105 7.07269 508.105C7.95316 508.105 9.74116 507.303 10.9556 506.592C10.5531 507.299 7.93013 508.696 7.00474 508.696C6.73121 508.696 5.72636 508.316 4.77218 507.851Z" fill="#5C52C3" stroke="#5C52C3"/>
<path d="M385.794 478.709C385.794 478.627 386.185 478.008 386.662 477.335C388.053 475.374 387.731 472.326 385.958 470.662C385.396 470.134 385.104 469.702 385.31 469.702C385.803 469.702 386.968 471.054 387.628 472.391C388.081 473.31 388.11 473.689 387.843 475.167C387.665 476.15 387.219 477.3 386.794 477.869C386.098 478.802 385.794 479.056 385.794 478.709Z" fill="#6155F5" stroke="#6155F5"/>
<path d="M303.529 55.9653C303.122 55.5175 302.77 55.3361 302.66 55.5187C302.376 55.9884 301.437 55.726 300.63 54.9509C299.716 54.0747 299.713 53.6635 300.613 53.0603C301.306 52.5971 301.354 52.616 302.395 53.7651C303.476 54.958 304.65 56.7186 304.366 56.7186C304.281 56.7186 303.905 56.3801 303.529 55.9653Z" fill="#6155F5" stroke="#6155F5"/>
<path d="M381.617 26.4598C378.847 25.5848 376.735 22.506 376.888 19.5679C377.01 17.2217 377.552 17.2832 378.093 19.7032C378.799 22.8605 379.488 24.0623 380.94 24.6678C382.816 25.4513 385.212 25.3414 386.783 24.4014C388.236 23.5311 388.295 23.4023 388.561 20.4961L388.754 18.3927L387.708 17.2105C387.133 16.56 386.662 15.8989 386.662 15.7406C386.662 15.5822 386.424 15.2324 386.133 14.9642C384.959 13.8789 380.467 14.683 378.691 16.2959C377.65 17.2418 377.36 16.8986 378.159 15.6649C378.578 15.0197 379.523 14.1282 380.26 13.6833C381.381 13.008 381.933 12.8763 383.625 12.881C386.074 12.8869 387.605 13.5935 388.96 15.3417C392.043 19.3174 390.16 25.1163 385.327 26.5337C383.898 26.9525 383.128 26.9372 381.617 26.4598Z" fill="#6155F5" stroke="#6155F5"/>
<path d="M85.6041 186.364C71.2926 185.322 58.0325 178.308 48.8167 166.907C43.6462 160.51 39.6751 151.861 37.8295 142.978C37.2658 140.264 37.1852 138.991 37.1846 132.787C37.1834 126.214 37.2404 125.426 37.9591 121.987C39.6515 113.888 42.8878 106.622 47.7646 99.9737C49.8722 97.1017 54.5746 92.2665 57.4066 90.0598C59.9887 88.0486 63.4386 85.8549 63.2561 86.3405C63.1679 86.5739 62.9365 88.3464 62.7418 90.2784C61.8717 98.8984 63.4421 108.357 67.1183 116.638C68.1047 118.86 70.662 123.536 71.6081 124.847L72.2744 125.77L70.214 128.392C67.0549 132.413 64.7838 136.408 63.1818 140.763L62.5299 142.535L57.5828 142.707C54.8619 142.802 52.5384 142.978 52.4186 143.101C52.2988 143.222 52.2015 146.269 52.2015 149.871V156.42L94.228 156.495L136.256 156.569L135.324 158.267C128.322 171.032 118.116 179.677 104.836 184.089C102.024 185.023 96.9437 186.028 93.9907 186.235C92.4797 186.341 90.7879 186.473 90.231 186.527C89.6748 186.582 87.5925 186.509 85.6041 186.364Z" fill="#F7C58F" stroke="#F7C58F"/>
<path d="M72.608 121.783C70.8781 119.012 68.1653 113.162 67.3004 110.336C65.6016 104.786 64.6434 97.9077 64.9331 93.3495C65.2095 89.0076 66.1026 83.7829 66.5236 84.0482C66.6629 84.1362 67.4017 83.9253 68.1653 83.5797C70.1508 82.6805 70.5251 82.528 72.301 81.8905C77.7537 79.9337 86.646 78.6144 91.566 79.0333L93.9633 79.2372L93.76 80.1636C93.6488 80.6729 93.559 83.4166 93.5613 86.2596C93.5659 91.9138 93.7991 93.2727 95.4639 97.3588C97.5203 102.404 101.172 107.318 105.368 110.687C106.508 111.6 107.53 112.427 107.641 112.523C107.752 112.62 105.54 112.705 102.725 112.714C95.2889 112.735 90.3383 113.827 84.7365 116.68C80.6796 118.746 78.7713 119.981 75.9629 122.352C75.0346 123.136 74.18 123.777 74.0637 123.777C73.948 123.777 73.2926 122.879 72.608 121.783Z" fill="#F7C58F" stroke="#F7C58F"/>
<path d="M116.595 114.479C113.895 113.511 112.623 112.845 109.753 110.902C104.216 107.154 101.012 103.45 98.2823 97.6377C96.6152 94.0887 96.0013 91.4636 95.8119 87.0756C95.6708 83.7901 95.976 80.2528 96.4735 79.4269C96.5351 79.3241 97.1409 79.4162 97.8193 79.6307C98.497 79.8458 100.289 80.3048 101.8 80.6504C104.389 81.2419 105.501 81.5662 106.861 82.1263C107.179 82.2575 107.959 82.5623 108.596 82.8034C118.307 86.4889 128.606 95.4304 134.03 104.883C136.051 108.407 138.734 114.507 138.408 114.841C138.339 114.911 133.88 115.03 128.5 115.105L118.718 115.241L116.595 114.479Z" fill="#F7C58F" stroke="#F7C58F"/>
<path d="M307.277 594.037C300.543 592.815 296.79 591.633 291.949 589.21C284.948 585.707 278.722 580.521 274.013 574.27C273.267 573.279 272.711 572.412 272.779 572.343C272.846 572.274 273.934 572.437 275.195 572.705C278.633 573.434 288.49 573.432 291.804 572.701C299.339 571.038 304.394 568.949 309.88 565.227C320.404 558.087 328.101 545.823 330.094 533.02C330.689 529.202 330.702 521.373 330.122 517.443C328.967 509.611 324.386 499.656 319.07 493.421C318.071 492.25 317.254 491.242 317.254 491.181C317.254 490.945 320.723 491.333 323.617 491.893C343.693 495.779 359.286 511.875 363.501 533.068C364.377 537.472 364.636 543.949 364.104 548.186C362.94 557.454 360.266 564.768 355.322 572.209C352.718 576.129 346.824 582.236 342.993 584.985C336.559 589.602 328.877 592.751 321.181 593.927C318.032 594.408 309.684 594.473 307.277 594.037Z" fill="#F7C58F" stroke="#F7C58F"/>
<path d="M64.9183 142.725C64.5428 142.341 67.714 135.85 69.6293 133.082C75.8755 124.056 84.2339 118.214 93.9905 116.057C96.5772 115.484 97.9062 115.383 102.956 115.371C109.344 115.357 110.548 115.523 114.937 117.025C117.797 118.003 119.235 118.684 119.097 118.994C119.047 119.107 118.534 119.93 117.958 120.823C117.381 121.716 115.548 124.708 113.885 127.47C110.475 133.133 105.061 141.758 104.572 142.307C104.323 142.587 99.6983 142.69 84.6353 142.751C73.8479 142.795 64.9753 142.783 64.9183 142.725ZM92.1109 137.148C95.4727 135.428 96.1844 131.162 93.5954 128.254C91.6479 126.067 87.5456 126.146 85.5422 128.409C84.2408 129.879 83.7928 132.653 84.5558 134.518C85.0222 135.658 86.8263 137.27 88.0621 137.65C89.1165 137.974 90.9367 137.748 92.1109 137.148Z" fill="#F7C58F" stroke="#F7C58F"/>
<path d="M52.1749 156.163C51.9429 155.545 52.1697 143.354 52.4179 143.101C52.5377 142.979 54.8612 142.802 57.5821 142.707L62.5292 142.535L63.1811 140.763C64.7831 136.409 67.0542 132.413 70.2133 128.392L72.2737 125.77L71.6074 124.847C69.5597 122.01 66.8567 116.43 65.219 111.66C62.2188 102.921 61.6154 91.277 65.3572 84.5547C66.1242 83.5999 66.2233 84.0454 65.7701 86.4075C63.8663 96.3244 65.2432 106.797 69.6922 116.244C71.3748 119.817 73.673 123.777 74.0629 123.777C74.1792 123.777 75.0337 123.136 75.962 122.352C78.7704 119.981 80.6788 118.747 84.7356 116.68C89.0729 114.471 94.377 112.939 94.8694 113.753C95.0087 113.983 94.9903 114.308 94.8273 114.509C94.3206 115.133 95.0352 115.242 97.0841 114.854C98.1707 114.648 101.284 114.479 104.04 114.476C107.835 114.473 109.029 114.383 109.029 114.102C109.029 113.871 108.613 113.733 107.915 113.733C107.302 113.733 106.359 113.567 105.818 113.364L104.835 112.994L106.378 112.847L107.921 112.699L105.838 111.085C101.488 107.713 97.8137 102.885 95.5805 97.6053C93.823 93.4518 93.5651 92.0014 93.5605 86.2598C93.5553 79.5209 93.9094 77.8406 96.1305 80.4999C95.6542 83.1987 95.8137 90.0156 96.4097 92.4634C97.0628 95.1463 99.0051 99.477 100.756 102.159C103.817 106.845 109.954 111.806 115.535 114.108L117.849 115.062H128.308C134.06 115.062 138.865 115.162 138.984 115.284C139.104 115.406 145.162 115.505 152.447 115.505C165.245 115.505 165.702 115.524 165.991 116.077C166.167 116.413 166.29 118.956 166.29 122.259C166.29 126.967 166.217 127.945 165.836 128.334C165.448 128.731 164.368 128.799 158.472 128.799C151.936 128.799 151.545 128.83 151.262 129.37C150.863 130.132 150.863 141.645 151.262 142.407C151.545 142.947 151.936 142.979 158.472 142.979C164.368 142.979 165.448 143.046 165.836 143.443C166.474 144.094 166.517 155.113 165.884 155.759C165.368 156.286 137.927 156.567 87.1369 156.567C57.9253 156.567 52.3022 156.502 52.1749 156.163ZM130.663 155.016C130.746 154.579 130.526 154.497 129.221 154.478C128.374 154.465 127.097 154.349 126.381 154.219C125.661 154.088 133.77 153.966 144.528 153.945L163.977 153.909V149.625V145.342H109.494C60.0784 145.342 54.9937 145.385 54.8342 145.809C54.7374 146.066 54.6585 147.993 54.6585 150.093V153.909H89.5577C89.5577 153.909 124.457 153.909 123.344 155.435C123.427 155.52 125.085 155.577 127.03 155.561C130.153 155.536 130.576 155.473 130.663 155.016ZM110.017 144.867C110.767 144.573 110.537 144.16 109.624 144.16C108.775 144.16 108.301 144.5 108.651 144.857C108.884 145.095 109.426 145.099 110.017 144.867ZM104.571 142.307C105.061 141.758 110.475 133.133 113.884 127.469C115.548 124.707 117.381 121.716 117.957 120.823C118.534 119.929 119.047 119.106 119.097 118.994C119.235 118.684 117.797 118.003 114.936 117.024C110.548 115.523 109.343 115.357 102.955 115.371C97.9058 115.382 96.5767 115.484 93.99 116.057C84.2335 118.214 75.875 124.056 69.6288 133.082C67.7136 135.85 64.5424 142.341 64.9178 142.725C64.9748 142.783 73.8475 142.795 84.6348 142.75C99.6978 142.69 104.323 142.587 104.571 142.307ZM148.938 136.775V130.571L131.948 130.575L114.957 130.578L112.445 134.489C111.063 136.64 109.327 139.29 108.587 140.38C107.847 141.468 107.326 142.498 107.429 142.669C107.557 142.88 114.177 142.979 128.278 142.979H148.938V136.775ZM163.786 126.655C164.223 126.327 164.273 125.77 164.202 122.002L164.121 117.721L160.94 117.623C159.19 117.57 149.796 117.619 140.065 117.733L122.369 117.939L120.998 120.341C118.285 125.092 117.762 126.101 117.925 126.267C118.016 126.359 123.397 126.436 129.883 126.436C137.431 126.436 141.739 126.542 141.853 126.731C142.137 127.199 163.153 127.127 163.786 126.655ZM118.861 117.134C118.861 116.743 117.805 115.801 117.368 115.801C116.451 115.801 116.512 116.374 117.474 116.804C118.522 117.272 118.861 117.352 118.861 117.134ZM108.612 111.637C108.893 111.172 108.056 110.423 107.141 110.32L106.359 110.233L107.169 111.096C108.05 112.034 108.312 112.133 108.612 111.637Z" fill="#6155F5" stroke="#6155F5"/>
<path d="M54.6582 150.093C54.6582 147.993 54.7371 146.066 54.8338 145.809C54.9933 145.385 60.0781 145.342 109.493 145.342H163.976V149.625V153.909H109.318H54.6582V150.093Z" fill="#F7C58F" stroke="#F7C58F"/>
<path d="M64.2869 84.5151C64.0111 84.0643 64.0618 83.5201 64.5403 81.7825C69.0918 65.2543 83.7206 48.3256 104.184 35.9059C105.735 34.9647 107.004 34.0029 107.004 33.7683C107.004 33.5338 106.695 32.9187 106.316 32.4018C104.492 29.9126 103.719 27.4058 103.704 23.9282C103.693 21.6323 103.817 20.7998 104.386 19.3494C106.791 13.2226 112.059 9.98191 120.597 9.37691L121.609 9.30542L121.682 5.31738C121.724 3.0055 121.896 1.04989 122.092 0.664673L122.43 0H131.097C139.013 0 139.798 0.0449023 140.149 0.516968C140.686 1.24013 140.741 71.4727 140.205 72.021C140.014 72.216 139.295 72.3755 138.607 72.3755C137.522 72.3755 137.318 72.4783 137.066 73.1536C136.907 73.5814 136.791 76.2572 136.807 79.0984C136.826 82.5654 136.73 84.3745 136.511 84.5978C136.076 85.0433 127.372 85.2235 126.305 84.8093L125.513 84.5015V79.0104C125.513 75.7892 125.389 73.2818 125.214 72.9468C124.99 72.5191 124.605 72.3755 123.681 72.3755C123.003 72.3755 122.291 72.216 122.101 72.021C121.843 71.7575 121.754 68.7561 121.754 60.3434C121.754 50.9104 121.686 48.9932 121.349 48.8608C120.903 48.686 116.756 51.2105 113.954 53.3623C107.982 57.9471 101.933 65.1249 99.424 70.603C97.4298 74.9562 96.5931 77.3567 96.5931 78.7233C96.9288 79.743 95.1955 79.4606 94.8978 79.2869C94.4728 78.8314 94.4245 78.5336 94.6404 77.6929C94.7861 77.1239 94.975 76.292 95.0596 75.843C95.5122 74.9131 95.8877 73.5896 96.0034 73.036C96.156 72.7542 96.7037 71.5927 97.2208 70.4553C100.877 62.4166 108.612 54.0494 117.409 48.6168C118.677 47.8346 120.14 47.1049 120.661 46.9962L121.609 46.7983L121.684 29.5617C121.738 17.0771 121.668 12.2146 121.432 11.9233C120.639 10.9473 115.471 11.8442 112.247 13.5168C109.73 14.8225 107.558 17.0718 106.473 19.4971C105.861 20.8666 105.746 21.5632 105.743 23.9282C105.74 26.4658 105.828 26.9302 106.664 28.7765C107.173 29.8991 108.173 31.5433 108.887 32.4289C109.601 33.3152 110.185 34.1488 110.185 34.2812C110.185 34.6097 108.811 35.5845 106.484 36.9074C102.963 38.9085 102.375 39.2777 99.3992 41.3586C94.4855 44.7954 93.7576 45.3443 90.5617 48.026C81.8664 55.3232 74.241 64.8384 69.9826 73.7048C68.1958 77.4258 66.227 82.6575 66.227 83.6856C66.227 84.0182 66.1412 84.2025 66.0364 84.0956C65.931 83.9881 65.6632 84.1653 65.4415 84.4891C64.9382 85.2229 64.7228 85.2282 64.2869 84.5151ZM134.74 82.6014C134.967 82.3219 135.047 80.7108 134.992 77.5056L134.912 72.8186H131.297H127.682L127.602 77.5333C127.559 80.1265 127.587 82.4194 127.666 82.6292C127.877 83.1928 134.28 83.168 134.74 82.6014ZM133.945 70.0122H138.527V36.1877V2.36328H131.343H124.159L123.969 8.78845C123.707 17.6797 123.728 69.8604 123.995 70.1451C124.115 70.2716 125.37 70.2946 126.787 70.1942C128.203 70.0937 131.424 70.0122 133.945 70.0122Z" fill="#6155F5" stroke="#6155F5"/>
<path d="M88.1378 134.836C87.2141 134.324 86.4707 133.004 86.4707 131.876C86.4707 130.794 88.2426 129.094 89.3701 129.094C91.252 129.094 92.5442 130.419 92.5442 132.348C92.5442 133.65 92.0708 134.397 90.9399 134.88C89.7179 135.401 89.1421 135.392 88.1378 134.836Z" fill="#E35039" stroke="#E35039"/>
<path d="M107.17 111.096L106.359 110.233L107.141 110.32C108.056 110.423 108.893 111.172 108.612 111.637C108.312 112.133 108.05 112.034 107.17 111.096Z" fill="#6155F5" stroke="#6155F5"/>
<path d="M123.995 70.1451C123.728 69.8604 123.707 17.6797 123.969 8.78845L124.159 2.36328H131.343H138.527V36.1877V70.0122H133.945C131.424 70.0122 128.203 70.0937 126.787 70.1942C125.37 70.2946 124.114 70.2716 123.995 70.1451Z" fill="#E35039" stroke="#E35039"/>
<path d="M88.0615 137.65C86.8258 137.27 85.0216 135.658 84.5552 134.517C83.7922 132.653 84.2402 129.879 85.5416 128.409C86.9692 126.797 90.2958 126.137 92.1166 127.104C95.4128 128.854 96.1764 133.836 93.5148 136.222C92.1074 137.484 89.6313 138.132 88.0615 137.65ZM90.9396 134.88C92.0706 134.397 92.5439 133.65 92.5439 132.348C92.5439 130.419 91.2517 129.094 89.3699 129.094C88.2423 129.094 86.4705 130.794 86.4705 131.876C86.4705 133.004 87.2139 134.324 88.1375 134.836C89.1418 135.392 89.7177 135.401 90.9396 134.88Z" fill="#6155F5" stroke="#6155F5"/>
<path d="M146.047 142.622C144.489 142.466 136.153 142.415 126.791 142.504C117.712 142.592 109.8 142.582 109.208 142.484C108.191 142.315 108.143 142.259 108.322 141.428C108.426 140.945 109.961 138.307 111.734 135.568L114.958 130.586L131.948 130.578L148.939 130.571V136.775C148.939 140.187 148.907 142.96 148.866 142.938C148.827 142.915 147.558 142.774 146.047 142.622Z" fill="#E35039" stroke="#E35039"/>
<path d="M117.475 116.804C116.951 116.571 116.6 116.249 116.697 116.09C116.987 115.609 117.835 115.764 118.364 116.395C119.207 117.401 119.012 117.49 117.475 116.804Z" fill="#6155F5" stroke="#6155F5"/>
<path d="M107.43 142.67C107.256 142.383 107.999 140.911 108.318 140.911C108.397 140.911 108.384 141.224 108.29 141.607C108.138 142.226 108.239 142.323 109.201 142.483C109.796 142.581 117.711 142.592 126.791 142.504C136.152 142.415 144.488 142.466 146.047 142.622C148.011 142.819 142.924 142.909 128.205 142.938C114.172 142.966 107.558 142.88 107.43 142.67Z" fill="#D35558" stroke="#D35558"/>
<path d="M108.651 144.857C108.301 144.5 108.776 144.16 109.625 144.16C110.537 144.16 110.767 144.573 110.017 144.867C109.426 145.099 108.884 145.095 108.651 144.857Z" fill="#6155F5" stroke="#6155F5"/>
<path d="M123.342 155.383C123.273 155.269 123.512 154.894 123.872 154.548C124.469 153.974 124.675 153.945 126.249 154.208C127.196 154.366 128.599 154.497 129.366 154.498C130.539 154.5 130.745 154.582 130.663 155.017C130.576 155.474 130.152 155.536 127.016 155.561C125.064 155.577 123.41 155.496 123.342 155.383Z" fill="#6155F5" stroke="#6155F5"/>
<path d="M94.7377 114.956C94.6392 114.793 94.679 114.584 94.8258 114.491C94.9721 114.399 95.0291 114.076 94.9519 113.775C94.8362 113.322 95.0297 113.192 96.0639 113.03C97.8669 112.748 106.737 112.531 105.818 113.374C106.359 113.572 107.302 113.733 107.914 113.733C108.613 113.733 109.029 113.871 109.029 114.102C109.029 114.386 107.965 114.454 104.474 114.398C101.968 114.357 99.333 114.451 98.6172 114.606C96.1272 115.144 94.918 115.254 94.7377 114.956Z" fill="#6155F5" stroke="#6155F5"/>
<path d="M117.925 126.267C117.762 126.1 118.283 125.096 121.019 120.306L122.41 117.869H131.002H139.593L140.205 120.749C140.542 122.333 140.937 124.261 141.083 125.032L141.35 126.436H129.72C123.323 126.436 118.016 126.359 117.925 126.267Z" fill="#F6C28F" stroke="#F6C28F"/>
<path d="M278.921 509.568C278.063 508.599 278.212 506.985 279.237 506.147C279.707 505.764 280.426 505.449 280.836 505.449C282.608 505.444 283.552 508.289 282.205 509.571C281.355 510.381 279.64 510.378 278.921 509.568Z" fill="#F7C58F" stroke="#F7C58F"/>
<path d="M258.078 512.955C257.128 512.477 256.521 511.471 256.521 510.378C256.521 509.556 257.754 508.171 258.704 507.928C260.171 507.551 262.015 509.048 262.015 510.617C262.015 511.46 261.21 512.708 260.433 513.07C259.461 513.522 259.175 513.508 258.078 512.955Z" fill="#6155F5" stroke="#6155F5"/>
<path d="M271.437 529.778C268.109 529.554 265.338 529.323 265.281 529.263C265.222 529.204 265.297 528.839 265.445 528.453C265.593 528.066 265.882 527.152 266.087 526.421C266.291 525.69 266.569 524.94 266.704 524.754C266.839 524.569 266.979 524.005 267.014 523.5C267.071 522.66 267.162 522.582 268.089 522.583C268.646 522.584 272.408 522.434 276.45 522.249C290.477 521.611 309.709 522.855 318.844 524.991C321.704 525.66 322.583 526.126 320.985 526.126C320.429 526.126 318.744 526.381 317.24 526.695C301.815 529.904 287.569 530.863 271.437 529.778Z" fill="#F7C58F" stroke="#F7C58F"/>
<path d="M269.68 570.977C264.685 569.246 261.572 567.728 257.822 565.195C250.856 560.489 245.246 553.879 241.606 546.088C239.78 542.179 238.814 539.288 237.801 534.706C237.121 531.63 237.046 530.686 237.037 525.092C237.028 520.245 237.137 518.371 237.534 516.525C238.453 512.238 238.89 510.644 239.798 508.253C244.728 495.285 253.98 485.66 266.636 480.334L269.101 479.297L269.173 455.667C269.24 433.869 269.284 432.009 269.735 431.668C270.37 431.188 297.893 431.129 298.763 431.605C299.309 431.903 299.323 432.484 299.323 455.843V479.777L300.229 480.1C301.322 480.489 306.187 482.965 307.999 484.055C310.241 485.403 316.675 490.707 317.832 492.821C317.832 492.976 318.677 494.208 319.71 495.559C321.947 498.487 324.372 502.486 324.627 503.67C324.728 504.138 324.975 504.66 325.177 504.831C325.38 505.003 325.905 506.109 326.346 507.289C327.704 510.928 329.52 515.335 329.725 515.491C330.176 515.833 330.635 521.461 330.336 522.98C329.928 525.049 329.889 527.012 330.255 527.012C330.422 527.012 330.556 527.64 330.557 528.415C330.558 530.398 329.925 534.786 328.42 535.311C328.124 535.06 328.095 534.639 328.296 533.511C328.44 532.701 328.52 531.086 328.472 529.922C328.369 527.333 328.43 527.356 324.049 528.321C319.882 529.24 319.266 529.337 319.441 529.048C319.523 528.914 318.472 528.822 317.108 528.842C314.527 528.881 313.344 528.461 314.846 528.039C315.295 527.913 315.923 527.796 316.241 527.78C316.559 527.764 316.82 527.551 316.82 527.307C316.82 526.806 319.031 526.159 320.813 526.138C322.07 525.893 322.07 525.475 322.655 525.356C322.722 525.163 321.905 524.817 320.662 524.511C319.502 524.226 317.97 523.723 317.254 523.394C314.798 521.934 319.168 522.667 318.121 522.317C318.121 521.738 319.205 521.968 319.361 522.581C319.445 522.906 319.744 523.171 320.027 523.171C320.31 523.171 321.119 523.458 321.827 523.807C322.534 524.157 323.453 524.481 323.87 524.526C324.287 524.572 325.376 524.698 326.291 524.806L327.954 525.002V523.956C327.954 523.381 328.074 522.835 328.221 522.742C328.543 522.539 328.35 520.051 327.761 516.82C327.524 515.52 327.224 513.633 327.094 512.627C326.964 511.62 326.528 510.091 326.126 509.23C325.725 508.367 325.108 506.932 324.756 506.038C322.857 501.218 315.915 491.596 314.637 492.01C314.138 492.172 312.164 490.754 312.463 490.449C312.61 490.299 309.36 487.789 306.958 486.196C305.197 485.028 300.789 482.816 299.094 482.249C298.277 481.977 297.479 481.594 297.321 481.399C297.163 481.204 296.995 479.855 296.949 478.401L296.865 475.758L292.124 475.61C288.02 475.483 287.34 475.394 287.064 474.946C286.832 474.569 286.832 474.288 287.064 473.912C287.34 473.464 288.02 473.375 292.124 473.247L296.865 473.099L296.945 469.152C297 466.493 296.918 465.071 296.693 464.795C296.434 464.476 295.331 464.385 291.759 464.385C287.766 464.385 287.134 464.321 286.976 463.902C286.877 463.636 286.927 463.204 287.089 462.941C287.333 462.544 288.18 462.44 292.124 462.317L296.865 462.169L296.945 458.222C297 455.563 296.918 454.141 296.693 453.865C296.434 453.546 295.331 453.455 291.759 453.455C287.766 453.455 287.134 453.391 286.976 452.971C286.877 452.706 286.927 452.274 287.089 452.011C287.333 451.614 288.18 451.51 292.124 451.387L296.865 451.239L296.945 447.22C297.006 444.13 296.935 443.124 296.635 442.871C296.394 442.666 294.495 442.509 291.638 442.458C291.638 442.458 287.032 442.377 287.032 440.604L291.638 440.523C294.507 440.472 296.393 440.316 296.637 440.109C296.93 439.861 297.008 439.024 296.946 436.794L296.865 433.81H284.284H271.704L271.555 457.443C271.473 470.441 271.375 481.091 271.338 481.11C271.301 481.128 270.392 481.445 269.318 481.814C255.608 486.523 244.198 499.084 240.47 513.571C239.299 518.124 238.742 524.344 239.465 524.801C239.628 524.904 240.962 524.587 242.43 524.097C248.82 521.964 252.853 521.248 264.474 520.187C266.542 519.998 268.391 519.717 268.583 519.562C268.774 519.407 269.069 519.367 269.237 519.473C269.711 519.772 292.15 519.871 292.928 519.576C293.307 519.433 295.519 519.407 297.844 519.52C300.168 519.632 301.902 519.781 301.697 519.852C301.105 520.054 301.869 520.808 302.667 520.808C303.036 520.808 303.409 520.927 303.497 521.072C303.734 521.464 302.218 521.77 301.799 521.414C301.6 521.246 301.36 521.189 301.263 521.288C301.167 521.387 294.542 521.485 286.541 521.507C272.944 521.544 270.173 521.695 271.723 522.315C272.031 522.439 270.395 522.55 268.089 522.564C262.829 522.594 255.31 523.341 250.448 524.316C246.322 525.144 245.389 525.524 246.005 526.126C246.269 526.384 250.654 527.326 254.063 527.858C255.176 528.032 257.389 528.391 258.979 528.658C260.57 528.924 262.608 529.162 263.508 529.185C264.408 529.208 265.123 529.356 265.098 529.512C265.034 529.913 269.289 530.335 269.653 529.964C270.105 529.502 272.23 529.621 272.971 530.151C273.529 530.551 273.826 530.576 274.731 530.299C276.058 529.893 277.251 529.87 277.478 530.244C277.727 530.656 280.264 530.986 280.485 530.634C280.712 530.273 292.382 529.952 292.382 530.307C292.382 530.609 295.3 530.642 296.72 529.689C297.595 529.667 299.677 529.474 301.347 529.262C303.017 529.049 304.427 528.987 304.48 529.125C304.533 529.262 305.419 529.375 306.449 529.375C307.643 529.375 308.257 529.484 308.141 529.675C307.864 530.133 305.937 530.935 304.962 530.999C304.485 531.031 302.598 531.216 300.769 531.412C298.939 531.608 296.662 531.83 295.708 531.906C294.754 531.982 292.62 532.183 290.965 532.352C287.676 532.688 281.963 532.531 273.439 531.871C267.929 531.445 266.372 531.446 265.395 531.88C265.103 532.008 264.587 531.971 264.238 531.797C263.891 531.624 262.891 531.415 262.016 531.332C261.141 531.251 259.547 531.043 258.473 530.87C257.399 530.698 255.708 530.43 254.713 530.274C251.821 529.822 247.672 529.076 244.953 528.517C241.025 527.711 239.996 527.555 239.603 527.71C238.495 528.143 239.763 535.524 241.932 541.27C246.19 552.549 254.171 561.416 264.697 566.564C266.394 567.395 267.913 568.074 268.072 568.074C268.624 568.074 270.842 569.384 271.768 571.14C270.957 571.362 270.744 571.345 269.68 570.977Z" fill="#6155F5" stroke="#6155F5"/>
<path d="M276.91 569.977C274.528 569.614 270.164 568.568 270.007 568.324C269.614 567.713 266.852 561.303 266.398 559.95C265.727 557.95 264.78 554.312 264.489 552.618C264.383 551.996 264.224 551.299 264.137 551.067C264.025 550.769 264.195 550.645 264.713 550.645C266.496 550.645 268.12 549.466 268.989 547.543C269.683 546.006 269.673 544.623 268.957 543.113C268.209 541.534 266.878 540.55 265.101 540.263C264.318 540.137 263.648 539.995 263.612 539.948C263.495 539.793 264.062 535.17 264.397 533.554L264.726 531.972L266.046 532.148C274.136 533.228 291.694 533.429 299.178 532.527C308.415 531.413 317.593 529.847 324.872 528.14C326.357 527.792 327.538 527.65 327.686 527.802C328.058 528.182 327.479 532.837 326.64 536.218C324.501 544.839 321.152 550.847 314.962 557.163C307.996 564.273 300.14 568.378 290.358 570.022C287.31 570.533 280.41 570.511 276.91 569.977ZM287.414 566.275C288.505 565.887 289.49 564.365 289.49 563.068C289.49 561.735 288.142 560.393 286.804 560.393C285.898 560.393 284.507 561.174 283.927 562.008C283.81 562.176 283.712 562.865 283.71 563.538C283.707 564.573 283.864 564.905 284.728 565.68C285.856 566.691 286.096 566.744 287.414 566.275ZM295.843 549.911C296.308 549.665 297.052 548.978 297.495 548.385C298.176 547.474 298.301 547.021 298.305 545.459C298.31 543.836 298.202 543.473 297.423 542.475C296.303 541.044 294.903 540.306 293.303 540.306C290.574 540.305 288.333 542.726 288.333 545.673C288.333 547.611 289.88 549.767 291.689 550.353C292.759 550.699 294.752 550.487 295.843 549.911ZM316.097 544.781C317.226 543.629 317.509 541.981 316.758 540.943C314.987 538.498 311.661 539.317 311.269 542.296C311.137 543.301 311.243 543.608 312.046 544.541C312.823 545.445 313.163 545.623 314.125 545.623C315.002 545.623 315.467 545.424 316.097 544.781Z" fill="#F7C58F" stroke="#F7C58F"/>
<path d="M278.5 573.201C276.108 572.903 272.619 572.153 272.11 571.828C271.441 571.401 271.396 571.028 272.015 571.028C272.642 571.028 270.992 569.358 270.059 568.335C270.814 568.741 275.498 569.803 278.014 570.136C281.234 570.564 287.474 570.506 290.357 570.022C300.14 568.378 307.995 564.273 314.962 557.163C321.151 550.847 324.5 544.839 326.64 536.218C327.207 533.932 327.936 529.252 327.951 527.807C327.953 527.675 328.083 527.65 328.242 527.75C328.587 527.968 328.605 531.956 328.269 533.729C328.096 534.642 328.134 535.068 328.407 535.3C329.389 535.329 329.908 533.154 329.677 534.877C329.7 536.704 327.286 543.777 325.406 547.395C319.279 559.181 309.41 567.596 297.442 571.237C292.352 572.786 289.874 573.174 284.573 573.252C281.79 573.294 279.057 573.271 278.5 573.201Z" fill="#6155F5" stroke="#6155F5"/>
<path d="M263.546 546.065L263.486 544.146H264.44C265.176 544.146 265.468 544.313 265.723 544.884C265.904 545.291 266.185 545.623 266.348 545.623C266.883 545.623 266.655 546.523 265.933 547.261C265.517 547.685 264.889 547.986 264.415 547.985C263.619 547.984 263.606 547.955 263.546 546.065Z" fill="#F6C28F" stroke="#F6C28F"/>
<path d="M304.962 516.394C303.273 515.687 302.616 513.444 303.66 511.946C304.815 510.289 306.723 510.133 308.139 511.58C309.255 512.719 309.152 514.372 307.883 515.668C306.896 516.676 306.108 516.872 304.962 516.394Z" fill="#6155F5" stroke="#6155F5"/>
<path d="M287.777 499.66C287.06 499.044 286.887 498.669 286.887 497.73C286.887 496.318 287.498 495.288 288.615 494.815C289.544 494.422 290.401 494.608 291.586 495.462C292.245 495.936 292.381 496.253 292.381 497.312C292.381 500.012 289.749 501.355 287.777 499.66Z" fill="#6155F5" stroke="#6155F5"/>
<path d="M262.53 549.882C261.001 549.097 259.769 547.455 259.516 545.862C259.271 544.324 260.526 541.967 261.999 541.2C262.623 540.875 263.213 540.478 263.31 540.316C263.61 539.822 266.142 540.328 267.283 541.111C268.522 541.961 269.538 543.877 269.528 545.347C269.516 547.374 268.025 549.647 266.262 550.329C265.071 550.791 264.066 550.67 262.53 549.882ZM265.933 547.261C266.806 546.368 266.917 544.481 266.137 543.788C264.427 542.27 261.726 543.51 261.726 545.812C261.726 546.058 262.107 546.648 262.571 547.122C263.65 548.225 264.938 548.277 265.933 547.261Z" fill="#6155F5" stroke="#6155F5"/>
<path d="M326.185 524.812C326.114 524.74 325.474 524.649 324.763 524.611C324.052 524.574 322.885 524.273 322.169 523.944C321.454 523.614 320.553 523.272 320.183 522.432C321.458 522.705 327.375 524.676 327.375 524.827C327.375 524.988 326.345 524.975 326.185 524.812Z" fill="#6155F5" stroke="#6155F5"/>
<path d="M330.022 525.482C330.081 522.8 330.504 522.171 330.532 524.722C330.546 526.041 330.436 527.012 330.272 527.012C330.116 527.012 330.004 526.324 330.022 525.482Z" fill="#6155F5" stroke="#6155F5"/>
<path d="M312.046 544.541C311.243 543.608 311.137 543.301 311.269 542.296C311.661 539.317 314.987 538.498 316.758 540.943C318.019 542.683 316.364 545.623 314.125 545.623C313.164 545.623 312.823 545.445 312.046 544.541Z" fill="#6155F5" stroke="#6155F5"/>
<path d="M284.728 565.68C283.864 564.905 283.707 564.573 283.71 563.538C283.715 562.151 283.813 561.959 284.974 561.048C286.18 560.101 287.592 560.181 288.644 561.257C289.666 562.3 289.755 563.578 288.904 564.984C288.372 565.864 287.112 566.597 286.131 566.597C285.922 566.597 285.29 566.184 284.728 565.68Z" fill="#6155F5" stroke="#6155F5"/>
<path d="M326.074 524.314C321.302 522.423 312.411 520.658 304.094 519.953C296.512 519.31 284.679 518.973 276.82 519.176L268.923 519.38L269.643 517.928C270.478 516.245 273.455 511.662 274.653 510.217L275.474 509.227L276.223 510.302C277.445 512.057 278.694 512.832 280.301 512.832C281.07 512.832 282.119 512.649 282.631 512.426C286.354 510.798 286.566 505.458 282.995 503.257L281.926 502.598L283.466 501.423C284.314 500.777 285.432 499.946 285.951 499.575L286.895 498.902L287.781 499.663C289.742 501.349 292.382 500.009 292.382 497.328C292.382 496.634 292.553 495.922 292.761 495.744C293.406 495.198 298.171 493.424 301.058 492.656C303.735 491.944 306.261 491.508 310.526 491.023L312.62 490.784L314.619 492.648C320.148 497.803 325.073 506.85 326.912 515.234C327.691 518.786 328.246 524.966 327.781 524.916C327.637 524.901 326.869 524.63 326.074 524.314ZM307.883 515.668C309.152 514.372 309.255 512.719 308.139 511.58C306.723 510.133 304.815 510.289 303.66 511.946C302.616 513.444 303.273 515.687 304.962 516.394C306.108 516.872 306.896 516.676 307.883 515.668Z" fill="#F7C58F" stroke="#F7C58F"/>
<path d="M279.167 519.11C281.045 519.059 284.038 519.059 285.819 519.111C287.599 519.163 286.063 519.205 282.404 519.205C278.746 519.205 277.289 519.162 279.167 519.11Z" fill="#6155F5" stroke="#6155F5"/>
<path d="M319.856 525.227C311.608 523.107 293.134 521.737 278.356 522.149C272.26 522.32 271.185 522.288 271.502 521.949C271.808 521.621 274.575 521.539 286.483 521.507C294.515 521.485 301.167 521.387 301.263 521.288C301.36 521.189 301.601 521.246 301.799 521.414C302.218 521.77 303.734 521.464 303.498 521.072C303.409 520.927 303.036 520.808 302.667 520.808C302.298 520.808 301.818 520.588 301.6 520.318C301.232 519.865 301.45 519.843 304.529 520.036C309.36 520.338 317.895 521.74 318.064 522.26C318.756 522.611 315.407 522.543 317.255 523.394C317.97 523.723 319.503 524.226 320.662 524.511C321.82 524.796 322.723 525.168 322.668 525.337C322.507 525.831 322.152 525.817 319.856 525.227Z" fill="#6155F5" stroke="#6155F5"/>
<path d="M275.753 519.595C276.942 519.328 293.397 519.279 293.138 519.544C293.023 519.66 288.87 519.763 283.907 519.773C278.945 519.783 275.275 519.703 275.753 519.595Z" fill="#6155F5" stroke="#6155F5"/>
<path d="M291.689 550.353C289.88 549.767 288.333 547.611 288.333 545.673C288.333 542.726 290.574 540.305 293.303 540.306C294.903 540.306 296.303 541.044 297.423 542.475C298.202 543.473 298.31 543.836 298.306 545.459C298.302 547.02 298.176 547.474 297.495 548.385C297.052 548.978 296.308 549.665 295.843 549.911C294.752 550.487 292.759 550.699 291.689 550.353ZM295.057 547.066C295.675 546.306 295.713 544.791 295.136 543.95C294.632 543.214 292.912 542.811 292.12 543.245C291.347 543.668 290.843 545.333 291.198 546.289C291.837 548.004 293.949 548.43 295.057 547.066Z" fill="#6155F5" stroke="#6155F5"/>
<path d="M277.955 512.118C276.277 510.854 275.595 509.647 275.783 508.276C276.175 505.433 277.035 504.146 279.142 503.247C282.791 501.69 285.75 504.327 285.494 508.907C285.431 510.061 283.968 511.864 282.636 512.433C281.11 513.084 279.052 512.946 277.955 512.118ZM282.206 509.571C283.553 508.289 282.608 505.445 280.836 505.449C280.426 505.449 279.707 505.764 279.238 506.147C278.213 506.985 278.063 508.599 278.922 509.568C279.64 510.378 281.355 510.381 282.206 509.571Z" fill="#6155F5" stroke="#6155F5"/>
<path d="M327.816 520.733C326.944 511.227 322.306 500.795 315.879 493.88C314.87 492.795 314.443 492.137 314.659 492C315.714 491.334 322.898 501.322 324.757 506.038C325.109 506.932 325.725 508.367 326.127 509.23C326.529 510.091 326.964 511.62 327.094 512.627C327.224 513.633 327.524 515.52 327.761 516.82C328.332 519.95 328.546 522.537 328.251 522.723C328.12 522.806 327.924 521.911 327.816 520.733Z" fill="#6155F5" stroke="#6155F5"/>
<path d="M328.349 512.43C327.691 510.783 326.791 508.469 326.349 507.289C325.907 506.109 325.38 505.003 325.178 504.831C324.976 504.66 324.728 504.138 324.627 503.67C324.373 502.486 321.948 498.487 319.71 495.559C318.677 494.208 317.832 492.997 317.832 492.869C317.187 492.215 316.474 490.35 317.059 490.997C317.111 491.064 317.992 492.117 319.019 493.335C321.419 496.184 323.9 500.047 325.691 503.722C327.145 506.704 329.799 514.313 329.636 515.028C329.586 515.246 329.007 514.077 328.349 512.43Z" fill="#6155F5" stroke="#6155F5"/>
<path d="M292.382 530.261C292.382 530.091 293.271 529.968 294.478 529.971C295.939 529.974 296.444 530.062 296.142 530.261C295.567 530.639 292.382 530.639 292.382 530.261Z" fill="#6155F5" stroke="#6155F5"/>
<path d="M273.15 530.261C273.041 530.08 273.456 529.974 274.217 529.987C275.179 530.003 275.331 530.065 274.885 530.261C274.085 530.612 273.363 530.612 273.15 530.261Z" fill="#6155F5" stroke="#6155F5"/>
<path d="M266.788 530.043C265.087 529.911 264.282 529.374 265.79 529.378C267.581 529.383 269.813 529.745 269.656 530.006C269.57 530.147 269.216 530.238 268.867 530.208C268.519 530.179 267.583 530.105 266.788 530.043Z" fill="#6155F5" stroke="#6155F5"/>
<path d="M271.065 519.407C272.146 519.35 273.837 519.351 274.825 519.408C275.813 519.466 274.928 519.513 272.861 519.512C270.793 519.511 269.985 519.464 271.065 519.407Z" fill="#6155F5" stroke="#6155F5"/>
<path d="M276.476 533.045C275.92 532.982 273.461 532.783 271.014 532.605C267.308 532.334 264.845 531.943 265.486 531.727C266.257 531.468 268.834 531.514 273.439 531.871C281.963 532.531 287.676 532.688 290.965 532.352C292.62 532.183 294.754 531.982 295.708 531.906C296.662 531.83 298.94 531.608 300.769 531.412C302.598 531.216 304.485 531.031 304.962 530.999C305.937 530.935 307.864 530.132 308.141 529.675C308.257 529.484 307.635 529.375 306.426 529.375C305.382 529.375 304.529 529.26 304.529 529.119C304.529 528.978 305.602 528.716 306.914 528.535C308.226 528.355 310.797 527.936 312.626 527.604C314.455 527.273 316.147 526.97 316.241 527.78C315.923 527.796 315.295 527.913 314.846 528.039C313.335 528.463 314.531 528.881 317.146 528.842C320.377 528.794 320.02 529.175 316.091 529.969C305.961 532.017 297.05 532.948 286.453 533.062C281.523 533.116 277.033 533.108 276.476 533.045Z" fill="#6155F5" stroke="#6155F5"/>
<path d="M278.211 530.556C277.643 530.371 277.812 530.314 279.007 530.291C279.845 530.275 280.525 530.394 280.525 530.556C280.525 530.899 279.26 530.899 278.211 530.556Z" fill="#6155F5" stroke="#6155F5"/>
<path d="M292.147 547.529C291.181 546.824 290.852 545.742 291.24 544.544C291.639 543.308 292.381 542.882 293.694 543.133C294.894 543.363 295.563 544.213 295.563 545.508C295.563 547.366 293.553 548.554 292.147 547.529Z" fill="#F7C58F" stroke="#F7C58F"/>
<path d="M330.389 121.004C329.134 118.203 328.865 114.815 329.574 110.705L329.764 109.597H328.472C326.521 109.597 322.825 108.528 321.283 107.517C316.289 104.244 314.006 98.1247 315.5 92.0204C315.84 90.6278 315.41 90.1002 313.933 90.1002C313.44 90.1002 312.291 89.9017 311.38 89.6594C306.913 88.4713 303.662 85.5314 301.904 81.0902C301.286 79.5304 301.209 78.91 301.257 75.9205C301.286 74.0523 301.352 72.2025 301.402 71.8102C301.487 71.1366 301.366 71.074 299.245 70.7041C298.01 70.4879 296.513 70.0897 295.919 69.8191C295.325 69.5485 294.775 69.3057 294.695 69.2797C293.958 69.0357 293.013 68.3934 292.744 67.9533C292.453 67.4777 292.532 67.3902 293.402 67.2242C294.06 67.0978 294.611 67.1805 295.049 67.4724C295.857 68.0088 299.608 68.8301 301.258 68.8301C302.55 68.8307 302.731 68.6735 303.293 67.0582C303.745 65.7584 303.771 60.5669 303.331 59.465C302.511 57.4107 302.18 56.7318 302.635 55.5591C302.948 55.0409 304.664 57.0361 305.222 58.5675C305.64 59.7143 305.719 60.7199 305.65 64.0326L305.564 68.0921L306.709 68.2847C309.624 68.7757 310.297 68.9701 312.192 69.8652C314.664 71.0326 316.264 72.4205 317.718 74.6591C319.367 77.1973 319.856 79.0182 319.856 82.6328C319.856 84.3243 319.717 85.9739 319.547 86.2983C319.019 87.305 319.645 87.6512 322.247 87.7919C327.212 88.0589 331.473 91.345 333.476 96.4515C334.049 97.9102 334.171 98.7468 334.171 101.178C334.171 102.803 334.063 104.698 333.929 105.388L333.686 106.643H334.71C337.542 106.643 341.767 108.339 344.091 110.41L345.335 111.517L344.292 112.355C343.087 113.324 342.309 113.23 342.575 112.147C342.785 111.289 342.154 110.746 341.735 111.425C341.49 111.822 341.326 111.791 340.446 111.18C338.977 110.162 336.82 109.597 334.401 109.597C332.354 109.597 332.266 109.626 331.96 110.41C331.513 111.554 331.51 116.308 331.955 117.721C332.161 118.371 332.537 119.404 332.79 120.017C333.228 121.07 333.223 121.155 332.7 121.573C331.229 122.748 331.164 122.732 330.389 121.004ZM331.746 104.758C332.144 103.143 332.19 102.366 331.972 100.981C331.24 96.3357 328.951 93.1169 324.908 91.0455C322.755 89.9418 321.654 89.6996 319.901 89.946C318.562 90.1345 318.513 90.177 318.106 91.5229C317.858 92.3406 317.687 94.1154 317.687 95.8607C317.687 98.598 317.756 98.9595 318.633 100.792C320.536 104.766 324.445 106.964 329.382 106.839L331.245 106.791L331.746 104.758ZM316.673 87.7381C317.45 87.3133 317.913 84.7917 317.786 81.6745C317.7 79.5753 317.517 78.669 316.905 77.3278C315.931 75.1932 313.777 72.9747 311.573 71.8385C309.791 70.9192 305.863 70.1169 304.813 70.4566C303.792 70.788 303.315 72.5191 303.302 75.9394C303.292 78.8486 303.353 79.1936 304.209 81.027C306.207 85.3027 310.149 87.8769 314.886 87.9998C315.573 88.0175 316.377 87.9 316.673 87.7381Z" fill="#6155F5" stroke="#6155F5"/>
<path d="M326.942 131.418C318.775 129.13 312.695 122.832 310.608 114.498C309.806 111.292 309.802 106.144 310.6 102.956C310.917 101.688 311.291 100.503 311.43 100.324C311.569 100.144 311.837 99.5084 312.025 98.9123C312.267 98.1418 312.606 97.743 313.194 97.5333C314.108 97.2077 314.361 97.3295 314.361 98.0916C314.361 98.7102 314.978 99.9728 315.37 100.158C315.527 100.232 316.009 101.055 316.441 101.989C317.363 103.979 319.354 106.253 321.283 107.517C322.821 108.526 326.519 109.597 328.461 109.597H329.743L329.499 111.148C329.06 113.936 329.274 118.136 329.948 119.954C330.283 120.858 330.719 121.823 330.918 122.1C331.254 122.568 331.346 122.556 332.225 121.934C332.79 121.535 333.116 121.088 333.036 120.823C332.963 120.579 332.616 119.582 332.266 118.607C331.545 116.598 331.376 111.883 331.969 110.375L332.303 109.527L334.972 109.654C337.988 109.798 339.691 110.419 341.716 112.114C342.392 112.679 343.053 113.136 343.185 113.13C343.318 113.124 343.861 112.737 344.393 112.273L345.36 111.428L343.869 110.224C341.246 108.106 337.505 106.643 334.71 106.643H333.686L333.929 105.388C334.063 104.698 334.171 102.803 334.171 101.178C334.171 98.7468 334.049 97.9102 333.476 96.4515C331.762 92.0824 327.844 88.616 323.762 87.8586L322.607 87.6441L323.907 87.0758C327.502 85.5042 333.186 84.9021 336.977 85.6933C347.897 87.9715 355.428 97.3655 355.428 108.711C355.428 119.608 348.639 128.606 338.278 131.442C335.311 132.253 329.886 132.242 326.942 131.418Z" fill="#F6A091" stroke="#F6A091"/>
<path d="M305.777 63.2179C305.777 62.1621 305.83 61.7297 305.894 62.2578C305.958 62.786 305.958 63.6498 305.894 64.178C305.83 64.7062 305.777 64.2737 305.777 63.2179Z" fill="#6155F5" stroke="#6155F5"/>
<path d="M341.823 112.093C341.562 111.771 341.545 111.549 341.765 111.324C342.136 110.945 342.703 111.241 342.703 111.813C342.703 112.444 342.231 112.595 341.823 112.093Z" fill="#6155F5" stroke="#6155F5"/>
<path d="M291.488 67.2674C290.154 66.0503 288.333 63.5984 288.333 63.0211C288.333 62.6265 289.392 61.4815 289.781 61.4549C289.861 61.4496 290.112 61.8773 290.339 62.4055C290.566 62.9337 291.559 64.1927 292.545 65.2048C292.545 65.2048 294.339 67.0446 292.699 67.831C293.312 68.5855 292.537 68.2251 291.488 67.2674Z" fill="#6155F5" stroke="#6155F5"/>
<path d="M314.825 99.5261C314.57 99.0038 314.361 98.3533 314.361 98.0798C314.361 97.346 314.093 97.1965 313.319 97.4966C312.394 97.8558 312.441 97.6101 313.646 95.7833C314.829 93.9895 315.258 93.8223 315.032 95.245C314.944 95.8004 315.023 97.1451 315.209 98.234C315.395 99.3223 315.489 100.272 315.418 100.344C315.347 100.417 315.08 100.049 314.825 99.5261Z" fill="#F5A991" stroke="#F5A991"/>
<path d="M326.269 106.628C322.878 105.93 320.065 103.78 318.634 100.792C317.757 98.9596 317.688 98.5981 317.688 95.8608C317.688 94.1155 317.859 92.3407 318.106 91.523C318.514 90.1771 318.563 90.1345 319.902 89.9461C321.654 89.6997 322.755 89.9419 324.909 91.0456C328.952 93.117 331.24 96.3358 331.973 100.981C332.191 102.366 332.144 103.143 331.746 104.758L331.245 106.791L329.382 106.839C328.358 106.865 326.957 106.77 326.269 106.628Z" fill="#F6A091" stroke="#F6A091"/>
</g>
<defs>
<clipPath id="clip0_179_7437">
<rect width="391" height="605" fill="white"/>
</clipPath>
</defs>
</svg>
